<svg width="479" height="526" viewBox="0 0 479 526" fill="none" xmlns="http://www.w3.org/2000/svg">
<path fill-rule="evenodd" clip-rule="evenodd" d="M228.655 223.724V510.091L278.362 485.233L277.458 204.832L228.655 223.724ZM184.37 385.8L120.202 356.964L53.3226 382.817V384.805L185.274 442.476V385.8H184.37ZM125.624 226.707L126.528 343.043L184.37 367.902V252.56L125.624 226.707ZM52.4188 366.907L112.068 344.038L110.26 220.741L52.4188 194.888V366.907ZM378.681 297.304L349.76 326.14L403.987 357.958L451.887 341.055L378.681 297.304ZM162.679 123.297V38.7788L242.211 0L479 114.348L476.289 200.854L390.43 286.367L474.481 334.094L475.385 426.567L409.409 456.397L292.823 384.805V493.187L228.655 526L1.80738 412.646L0 99.4329L60.5527 75.569L162.679 123.297ZM177.139 46.7334V130.257L292.823 183.951V247.588L382.296 153.127L177.139 46.7334ZM196.119 35.7958L241.307 12.9263L452.79 115.342L403.987 140.2L196.119 35.7958ZM20.7867 110.371L227.751 206.82L271.132 189.917L60.5527 93.4669L20.7867 110.371Z" fill="#F4F4F4"/>
</svg>
