<svg width="252" height="100" viewBox="0 0 252 100" fill="none" xmlns="http://www.w3.org/2000/svg">
<path d="M246.794 78.7304H241.903V72.5428H246.794C249.16 72.5428 250.58 73.4268 250.58 75.5482C250.58 77.8465 249.16 78.7304 246.794 78.7304ZM241.903 65.2944H246.321C248.529 65.2944 249.791 66.3552 249.791 68.2999C249.791 70.2445 248.529 71.3053 246.321 71.3053H241.903V65.2944ZM249.003 71.8356C250.422 71.3053 251.369 70.0677 251.369 68.1231C251.369 65.4712 249.476 64.0569 246.478 64.0569H240.483V80.1448H246.794C250.265 80.1448 252 78.5537 252 75.725C252 73.6035 250.896 72.1892 249.003 71.8356ZM222.499 78.7304C219.028 78.7304 216.504 75.9018 216.504 72.0124C216.504 68.1231 219.028 65.2944 222.499 65.2944C225.969 65.2944 228.494 68.1231 228.494 72.0124C228.494 75.9018 225.969 78.7304 222.499 78.7304ZM222.499 80.3215C226.758 80.3215 230.071 76.7858 230.071 72.1892C230.071 67.4159 226.916 64.0569 222.499 64.0569C218.081 64.0569 214.926 67.5927 214.926 72.1892C214.926 76.7858 218.239 80.3215 222.499 80.3215ZM203.094 64.0569V71.3053H194.102V64.0569H192.524V80.1448H194.102V72.7196H203.094V80.1448H204.514V64.0569H203.094ZM169.018 80.1448H170.437L179.588 66.8855V80.1448H181.007V64.0569H179.588L170.437 77.3161V64.0569H169.018V80.1448ZM174.855 62.8194C176.906 62.8194 178.168 61.7586 178.168 59.814H177.063C177.063 61.0515 176.117 61.7586 174.855 61.7586C173.593 61.7586 172.646 61.0515 172.646 59.814H171.542C171.542 61.7586 172.804 62.8194 174.855 62.8194ZM148.666 74.4875L152.137 65.8248L155.608 74.4875H148.666ZM157.817 80.1448H159.394L152.768 64.0569H151.348L144.722 80.1448H146.3L148.035 75.9018H156.081L157.817 80.1448ZM131.786 73.6035H128V65.4712H131.786C134.626 65.4712 136.203 66.8855 136.203 69.5374C136.203 72.0124 134.783 73.6035 131.786 73.6035ZM131.944 64.0569H126.58V80.1448H128.157V75.0179H131.944C135.572 75.0179 137.781 72.8964 137.781 69.5374C137.781 66.0016 135.572 64.0569 131.944 64.0569ZM115.694 80.1448H117.43L111.75 71.8356L117.114 64.0569H115.537L110.646 71.3053H107.333V64.0569H105.913V80.1448H107.333V72.7196H110.646L115.694 80.1448Z" fill="white"/>
<path d="M230.329 39.2564V34.2286C230.329 28.3339 233.176 25.5599 237.606 25.5599C241.877 25.5599 244.882 28.3339 244.882 34.2286V39.2564H230.329ZM237.606 18.7983C228.905 18.7983 223.053 24.5197 223.053 35.0954V53.9931H230.329V45.6712H244.724V53.9931H252V35.0954C252 24.5197 246.306 18.7983 237.606 18.7983ZM205.178 19.3185V33.0149H190.783V19.3185H183.507V53.9931H190.783V39.7765H205.178V53.9931H212.454V19.3185H205.178V19.3185ZM168.321 54.1665H176.863L162.943 34.9221L176.072 19.4918H168.005L153.926 35.6155V19.4918H146.65V54.1665H153.926V45.3245L158.197 40.47L168.321 54.1665ZM120.549 47.9251C114.855 47.9251 110.584 43.4173 110.584 36.8292C110.584 30.241 114.855 25.7333 120.549 25.7333C126.244 25.7333 130.515 30.241 130.515 36.8292C130.357 43.4173 126.244 47.9251 120.549 47.9251ZM120.549 54.6866C130.515 54.6866 137.791 47.0582 137.791 36.8292C137.791 26.4268 130.357 18.9717 120.549 18.9717C110.584 18.9717 103.307 26.6001 103.307 36.8292C103.149 47.0582 110.584 54.6866 120.549 54.6866Z" fill="white"/>
<path fill-rule="evenodd" clip-rule="evenodd" d="M43.4178 41.889V95.6723L52.8907 91.018L52.7328 38.4413L43.4178 41.889ZM35.05 72.4007L22.893 66.8844L10.2624 71.8835V72.2283L35.2079 83.0884V72.4007H35.05ZM23.9982 42.4061L24.1561 64.2987L35.05 68.953V47.2328L23.9982 42.4061ZM10.2624 68.6083L21.4721 64.2987L20.9984 41.0271L10.2624 36.3727V68.6083ZM71.8367 55.6796L66.3108 61.0234L76.5731 66.8844L85.5725 63.7816L71.8367 55.6796ZM30.945 23.0993V7.24007L45.9439 0L90.7826 21.3754L90.3089 37.5794L74.047 53.611L89.8353 62.5749L89.9932 79.9855L77.6783 85.8465L55.5747 72.4007V92.9142L43.4178 99.12L0.473647 77.5722L0 18.7897L11.5254 14.3078L30.945 23.0993ZM33.7869 8.61913V24.3059L55.7326 34.3041V46.3709L72.6261 28.6155L33.7869 8.61913ZM37.2603 6.55054L45.786 2.24098L85.8882 21.5478L76.5731 26.3745L37.2603 6.55054ZM4.26284 20.5135L43.4178 38.6137L51.6277 35.5108L11.8412 17.4106L4.26284 20.5135Z" fill="white"/>
<path fill-rule="evenodd" clip-rule="evenodd" d="M20.7599 41.0151L23.7907 42.2268L24.1097 64.0374L34.9566 68.8842V72.3462L22.6741 66.807L9.91309 71.8269V68.538L21.079 64.3836L20.7599 41.0151Z" fill="#42AF6C"/>
</svg>
