<svg width="150" height="59" viewBox="0 0 150 59" fill="none" xmlns="http://www.w3.org/2000/svg">
<path fill-rule="evenodd" clip-rule="evenodd" d="M68.8083 47.6104H69.8394L66.4646 42.7878L69.652 38.273H68.7145L65.8084 42.48H63.8398V38.273H62.9961V47.6104H63.8398V43.3009H65.8084L68.8083 47.6104ZM78.4639 38.273H75.2766V47.6104H76.2141V44.6348H78.4639C80.62 44.6348 81.9325 43.4035 81.9325 41.4539C82.0262 39.5043 80.62 38.273 78.4639 38.273ZM78.4639 43.8139H76.2141V39.0939H78.4639C80.1513 39.0939 81.0888 39.9148 81.0888 41.4539C81.0888 42.993 80.1513 43.8139 78.4639 43.8139ZM93.9318 47.6104H94.8692L90.9319 38.273H89.9945L86.0572 47.6104H86.9947L88.1196 45.1478H92.9006L93.9318 47.6104ZM88.4946 44.3269L90.557 39.2991L92.6193 44.3269H88.4946ZM104.15 37.5548C105.369 37.5548 106.119 36.9391 106.119 35.8104H105.462C105.462 36.5287 104.9 36.9391 104.15 36.9391C103.4 36.9391 102.837 36.5287 102.837 35.8104H102.181C102.181 36.9391 102.931 37.5548 104.15 37.5548ZM100.588 47.6104H101.431L106.868 39.9148V47.6104H107.806V38.273H106.962L101.525 46.0713V38.273H100.588V47.6104ZM120.93 38.273V42.48H115.587V38.273H114.649V47.6104H115.587V43.3009H120.93V47.6104H121.868V38.273H120.93ZM132.461 47.713C134.992 47.713 136.96 45.6609 136.96 42.993C136.96 40.2226 135.086 38.273 132.461 38.273C129.836 38.273 127.961 40.3252 127.961 42.993C127.961 45.6609 129.836 47.713 132.461 47.713ZM132.461 46.7896C130.398 46.7896 128.898 45.1478 128.898 42.8904C128.898 40.633 130.398 38.9913 132.461 38.9913C134.523 38.9913 136.023 40.633 136.023 42.8904C136.023 45.1478 134.523 46.7896 132.461 46.7896ZM148.21 42.7878C149.053 42.48 149.616 41.7617 149.616 40.633C149.616 39.0939 148.491 38.273 146.71 38.273H143.148V47.6104H146.897C148.96 47.6104 149.991 46.6869 149.991 45.0452C150.085 43.9165 149.428 43.0956 148.21 42.7878ZM143.991 39.0939H146.616C147.929 39.0939 148.679 39.7096 148.679 40.8382C148.679 41.9669 147.929 42.5826 146.616 42.5826H143.991V39.0939ZM146.897 46.8922H143.991V43.3009H146.897C148.304 43.3009 149.147 43.8139 149.147 45.0452C149.147 46.2765 148.397 46.8922 146.897 46.8922Z" fill="#1F1B20"/>
<path fill-rule="evenodd" clip-rule="evenodd" d="M71.6205 32.527C77.5264 32.527 81.9324 28.0122 81.9324 21.8557C81.9324 15.6992 77.5264 11.1844 71.6205 11.1844C65.7146 11.1844 61.3086 15.6992 61.3086 21.8557C61.4023 28.0122 65.7146 32.527 71.6205 32.527ZM71.6205 28.5253C68.2457 28.5253 65.7146 25.8574 65.7146 21.9583C65.7146 18.0592 68.2457 15.3913 71.6205 15.3913C74.9953 15.3913 77.5264 18.0592 77.5264 21.9583C77.5264 25.7548 74.9953 28.5253 71.6205 28.5253ZM100.025 32.2192H105.087L96.8377 20.8296L104.619 11.6974H99.7438L91.4006 21.3426V11.6974H87.1821V32.3218H91.4943V27.0887L94.0254 24.2157L100.025 32.2192ZM121.961 11.5948V19.7009H113.431V11.5948H109.118V32.2192H113.431V23.8053H121.961V32.2192H126.273V11.5948H121.961ZM141.179 11.287C136.023 11.287 132.554 14.6731 132.554 20.9322V32.2192H136.867V27.294H145.491V32.2192H149.803V20.9322C149.803 14.6731 146.335 11.287 141.179 11.287ZM136.867 23.3948V20.5218C136.867 17.0331 138.554 15.3913 141.179 15.3913C143.71 15.3913 145.491 17.0331 145.491 20.5218V23.4974H136.867V23.3948Z" fill="#1F1B20"/>
<path fill-rule="evenodd" clip-rule="evenodd" d="M18.3739 13.7496V4.20696L27.2796 0L53.9031 12.8261L53.6218 22.4713L44.0599 32.0139L53.4343 37.3496L53.5281 47.713L46.216 51.2017L33.0918 43.0956V55.3061L25.8735 59L0.281233 46.2765L0 11.1843L6.84334 8.51652L18.3739 13.7496ZM5.99964 41.0435L12.7492 38.4783L12.468 24.6261L5.99964 21.753V41.0435ZM14.2492 25.3443L14.3429 38.3757L20.8113 41.1461V28.2174L14.2492 25.3443ZM20.8113 43.1983L13.5929 40.0174L5.99964 42.8904V43.0956L20.8113 49.56V43.1983Z" fill="#1F1B20"/>
<path fill-rule="evenodd" clip-rule="evenodd" d="M12.4684 24.626L14.2495 25.3443L14.437 38.3756L20.8116 41.146V43.1982L13.5933 40.0173L6 42.8904V41.0434L12.6559 38.4782L12.4684 24.626Z" fill="#42AF6C"/>
</svg>
