<svg width="132" height="52" viewBox="0 0 132 52" fill="none" xmlns="http://www.w3.org/2000/svg">
<path d="M128.345 40.9437H125.802V37.7258H128.345C129.576 37.7258 130.314 38.1855 130.314 39.2888C130.314 40.484 129.576 40.9437 128.345 40.9437ZM125.802 33.9563H128.099C129.248 33.9563 129.904 34.5079 129.904 35.5193C129.904 36.5306 129.248 37.0822 128.099 37.0822H125.802V33.9563ZM129.494 37.358C130.232 37.0822 130.724 36.4387 130.724 35.4273C130.724 34.0482 129.74 33.3127 128.181 33.3127H125.063V41.6792H128.345C130.15 41.6792 131.053 40.8517 131.053 39.3807C131.053 38.2774 130.478 37.5419 129.494 37.358ZM115.71 40.9437C113.905 40.9437 112.593 39.4727 112.593 37.45C112.593 35.4273 113.905 33.9563 115.71 33.9563C117.515 33.9563 118.828 35.4273 118.828 37.45C118.828 39.4727 117.515 40.9437 115.71 40.9437ZM115.71 41.7711C117.926 41.7711 119.649 39.9324 119.649 37.5419C119.649 35.0596 118.008 33.3127 115.71 33.3127C113.413 33.3127 111.772 35.1515 111.772 37.5419C111.772 39.9324 113.495 41.7711 115.71 41.7711ZM105.619 33.3127V37.0822H100.943V33.3127H100.122V41.6792H100.943V37.8177H105.619V41.6792H106.357V33.3127H105.619ZM87.8976 41.6792H88.636L93.3945 34.7837V41.6792H94.1329V33.3127H93.3945L88.636 40.2082V33.3127H87.8976V41.6792ZM90.9332 32.6691C91.9998 32.6691 92.6561 32.1175 92.6561 31.1062H92.0818C92.0818 31.7497 91.5896 32.1175 90.9332 32.1175C90.2769 32.1175 89.7846 31.7497 89.7846 31.1062H89.2103C89.2103 32.1175 89.8666 32.6691 90.9332 32.6691ZM77.3139 38.7371L79.1189 34.2321L80.9239 38.7371H77.3139ZM82.0725 41.6792H82.8929L79.4471 33.3127H78.7087L75.2628 41.6792H76.0833L76.9858 39.4727H81.17L82.0725 41.6792ZM68.5353 38.2774H66.5662V34.0482H68.5353C70.012 34.0482 70.8325 34.7837 70.8325 36.1628C70.8325 37.45 70.0941 38.2774 68.5353 38.2774ZM68.6173 33.3127H65.8278V41.6792H66.6483V39.013H68.6173C70.5043 39.013 71.6529 37.9097 71.6529 36.1628C71.6529 34.3241 70.5043 33.3127 68.6173 33.3127ZM60.1668 41.6792H61.0693L58.1157 37.358L60.9052 33.3127H60.0847L57.5414 37.0822H55.8185V33.3127H55.0801V41.6792H55.8185V37.8177H57.5414L60.1668 41.6792Z" fill="white"/>
<path d="M119.782 20.4155V17.8007C119.782 14.7352 121.262 13.2926 123.566 13.2926C125.787 13.2926 127.35 14.7352 127.35 17.8007V20.4155H119.782ZM123.566 9.77625C119.041 9.77625 115.998 12.7516 115.998 18.2516V28.0793H119.782V23.7515H127.268V28.0793H131.052V18.2516C131.052 12.7516 128.09 9.77625 123.566 9.77625ZM106.702 10.0467V17.1696H99.2158V10.0467H95.4317V28.0793H99.2158V20.6859H106.702V28.0793H110.486V10.0467H106.702ZM87.5343 28.1695H91.9766L84.7374 18.1614L91.5653 10.1369H87.3698L80.0483 18.522V10.1369H76.2642V28.1695H80.0483V23.5712L82.2695 21.0466L87.5343 28.1695ZM62.6907 24.9236C59.7292 24.9236 57.5081 22.5794 57.5081 19.1532C57.5081 15.727 59.7292 13.3828 62.6907 13.3828C65.6522 13.3828 67.8733 15.727 67.8733 19.1532C67.791 22.5794 65.6522 24.9236 62.6907 24.9236ZM62.6907 28.4399C67.8733 28.4399 71.6574 24.4728 71.6574 19.1532C71.6574 13.7434 67.791 9.86641 62.6907 9.86641C57.5081 9.86641 53.7239 13.8336 53.7239 19.1532C53.6417 24.4728 57.5081 28.4399 62.6907 28.4399Z" fill="white"/>
<path d="M16.093 3.7652V12.0128L5.99381 7.44075L0 9.77159L0.24632 40.3414L22.5794 51.5474L28.9016 48.3201V37.652L40.3966 44.6445L46.801 41.5965L46.7189 32.5421L38.5082 27.8804L46.9652 19.5432L47.2115 11.1163L23.8931 0L16.093 3.7652Z" fill="white"/>
</svg>
