<svg>
    <symbol viewBox="0 0 20 17" id="icon-tg" fill="currentColor" xmlns="http://www.w3.org/2000/svg">
        <path d="M18.4359 0.432982L0.923154 7.06432C-0.272019 7.5357 -0.265105 8.19039 0.703875 8.48234L5.2001 9.85962L15.603 3.41451C16.0949 3.12063 16.5444 3.27872 16.1749 3.60074L7.74651 11.0701H7.74453L7.74651 11.0711L7.43636 15.6219C7.89072 15.6219 8.09123 15.4173 8.34607 15.1757L10.53 13.0904L15.0726 16.3852C15.9102 16.8382 16.5118 16.6054 16.7202 15.6238L19.7022 1.82385C20.0074 0.622117 19.235 0.077992 18.4359 0.432982Z" fill="currentColor"/>
    </symbol>
    <symbol viewBox="0 0 23 21" id="icon-whatsapp" fill="currentColor" xmlns="http://www.w3.org/2000/svg">
        <path d="M19.0726 3.04236C16.9944 1.08329 14.2316 3.05176e-05 11.2915 3.05176e-05C5.22801 3.05176e-05 0.289204 4.65572 0.289204 10.3716C0.289204 12.1982 0.796532 13.9844 1.75618 15.5574L0.191406 20.9334L6.02262 19.4929C7.63018 20.3168 9.43944 20.7547 11.2793 20.7547H11.2854C17.3489 20.7547 22.2877 16.099 22.2877 10.3831C22.2938 7.61163 21.1508 5.00144 19.0726 3.04236ZM11.2915 19.0031C9.64726 19.0031 8.0336 18.5882 6.63386 17.7988L6.29768 17.6145L2.83807 18.473L3.76104 15.2924L3.54099 14.9639C2.62414 13.5926 2.14126 12.0023 2.14126 10.3774C2.14126 5.62374 6.24878 1.75744 11.2915 1.75744C13.7365 1.75744 16.0286 2.65631 17.7584 4.28696C19.4882 5.9176 20.4356 8.08411 20.4356 10.3889C20.4356 15.1368 16.3281 19.0031 11.2915 19.0031ZM16.3037 12.5439C16.0286 12.4114 14.6778 11.7891 14.4272 11.7026C14.1765 11.6162 13.9932 11.5701 13.8098 11.8352C13.6264 12.0945 13.1008 12.6764 12.9418 12.8493C12.7829 13.0221 12.624 13.0452 12.3489 12.9127C12.0739 12.7801 11.1876 12.5093 10.1363 11.6277C9.3172 10.9421 8.76708 10.0893 8.60816 9.83C8.44924 9.57071 8.58982 9.43242 8.73041 9.29989C8.85266 9.18465 9.00547 8.99451 9.13994 8.8447C9.27441 8.69488 9.32331 8.58541 9.415 8.41255C9.50668 8.23969 9.45778 8.08987 9.39055 7.95735C9.32331 7.82482 8.77319 6.55142 8.54092 6.03284C8.31476 5.52578 8.08861 5.59493 7.92357 5.58917C7.76465 5.58341 7.58128 5.57764 7.39791 5.57764C7.21454 5.57764 6.91503 5.64102 6.66442 5.90031C6.41381 6.1596 5.70478 6.78766 5.70478 8.06106C5.70478 9.33446 6.68887 10.5675 6.82946 10.7404C6.96393 10.9133 8.76708 13.5292 11.5299 14.6528C12.1839 14.9178 12.6973 15.0792 13.0947 15.2002C13.7548 15.3961 14.3538 15.3673 14.8245 15.3039C15.3501 15.229 16.4503 14.6758 16.6826 14.0708C16.9088 13.4658 16.9088 12.9472 16.8415 12.8378C16.7621 12.7398 16.5787 12.6764 16.3037 12.5439Z" fill="currentColor"/>
    </symbol>
    <symbol viewBox="0 0 26 18" id="icon-youtube" fill="currentColor" xmlns="http://www.w3.org/2000/svg">
        <path fill-rule="evenodd" clip-rule="evenodd" d="M1.18199 2.14594C0.220703 3.39872 0.220703 5.21726 0.220703 8.85435C0.220703 12.4914 0.220703 14.31 1.18199 15.5628C1.42947 15.8853 1.71816 16.174 2.04069 16.4215C3.29346 17.3827 5.11201 17.3827 8.74909 17.3827H17.2775C20.9146 17.3827 22.7331 17.3827 23.9859 16.4215C24.3084 16.174 24.5971 15.8853 24.8446 15.5628C25.8059 14.31 25.8059 12.4914 25.8059 8.85435C25.8059 5.21726 25.8059 3.39872 24.8446 2.14594C24.5971 1.82342 24.3084 1.53473 23.9859 1.28725C22.7331 0.325958 20.9146 0.325958 17.2775 0.325958H8.7491C5.11201 0.325958 3.29346 0.325958 2.04069 1.28725C1.71816 1.53473 1.42947 1.82342 1.18199 2.14594ZM11.3079 11.7516L16.425 8.42796L11.3079 5.10434V11.7516Z" fill="currentColor"/>
    </symbol>
    <symbol viewBox="0 0 25 15" id="icon-vk" fill="currentColor" xmlns="http://www.w3.org/2000/svg">
        <path d="M13.8799 14.4411C5.53579 14.4411 0.776432 9.20249 0.578125 0.485504H4.75782C4.89511 6.88355 7.97649 9.59363 10.4172 10.1524V0.485504H14.3528V6.00347C16.763 5.76598 19.2952 3.25147 20.1495 0.485504H24.0851C23.7632 1.92001 23.1215 3.27826 22.2002 4.4753C21.2789 5.67233 20.0978 6.6824 18.7308 7.44233C20.2567 8.13669 21.6045 9.11951 22.6852 10.3259C23.766 11.5323 24.555 12.9349 25.0003 14.4411H20.6681C20.2683 13.1328 19.4558 11.9618 18.3324 11.0746C17.209 10.1874 15.8246 9.62368 14.3528 9.45394V14.4411H13.8799Z" fill="currentColor"/>
    </symbol> 
</svg>