<svg width="25" height="15" viewBox="0 0 25 15" fill="none" xmlns="http://www.w3.org/2000/svg">
<path d="M13.8799 14.4411C5.53579 14.4411 0.776432 9.20249 0.578125 0.485504H4.75782C4.89511 6.88355 7.97649 9.59363 10.4172 10.1524V0.485504H14.3528V6.00347C16.763 5.76598 19.2952 3.25147 20.1495 0.485504H24.0851C23.7632 1.92001 23.1215 3.27826 22.2002 4.4753C21.2789 5.67233 20.0978 6.6824 18.7308 7.44233C20.2567 8.13669 21.6045 9.11951 22.6852 10.3259C23.766 11.5323 24.555 12.9349 25.0003 14.4411H20.6681C20.2683 13.1328 19.4558 11.9618 18.3324 11.0746C17.209 10.1874 15.8246 9.62368 14.3528 9.45394V14.4411H13.8799Z" fill="white"/>
</svg>
