<svg width="23" height="21" viewBox="0 0 23 21" fill="none" xmlns="http://www.w3.org/2000/svg">
<path d="M19.0726 3.04236C16.9944 1.08329 14.2316 3.05176e-05 11.2915 3.05176e-05C5.22801 3.05176e-05 0.289204 4.65572 0.289204 10.3716C0.289204 12.1982 0.796532 13.9844 1.75618 15.5574L0.191406 20.9334L6.02262 19.4929C7.63018 20.3168 9.43944 20.7547 11.2793 20.7547H11.2854C17.3489 20.7547 22.2877 16.099 22.2877 10.3831C22.2938 7.61163 21.1508 5.00144 19.0726 3.04236ZM11.2915 19.0031C9.64726 19.0031 8.0336 18.5882 6.63386 17.7988L6.29768 17.6145L2.83807 18.473L3.76104 15.2924L3.54099 14.9639C2.62414 13.5926 2.14126 12.0023 2.14126 10.3774C2.14126 5.62374 6.24878 1.75744 11.2915 1.75744C13.7365 1.75744 16.0286 2.65631 17.7584 4.28696C19.4882 5.9176 20.4356 8.08411 20.4356 10.3889C20.4356 15.1368 16.3281 19.0031 11.2915 19.0031ZM16.3037 12.5439C16.0286 12.4114 14.6778 11.7891 14.4272 11.7026C14.1765 11.6162 13.9932 11.5701 13.8098 11.8352C13.6264 12.0945 13.1008 12.6764 12.9418 12.8493C12.7829 13.0221 12.624 13.0452 12.3489 12.9127C12.0739 12.7801 11.1876 12.5093 10.1363 11.6277C9.3172 10.9421 8.76708 10.0893 8.60816 9.83C8.44924 9.57071 8.58982 9.43242 8.73041 9.29989C8.85266 9.18465 9.00547 8.99451 9.13994 8.8447C9.27441 8.69488 9.32331 8.58541 9.415 8.41255C9.50668 8.23969 9.45778 8.08987 9.39055 7.95735C9.32331 7.82482 8.77319 6.55142 8.54092 6.03284C8.31476 5.52578 8.08861 5.59493 7.92357 5.58917C7.76465 5.58341 7.58128 5.57764 7.39791 5.57764C7.21454 5.57764 6.91503 5.64102 6.66442 5.90031C6.41381 6.1596 5.70478 6.78766 5.70478 8.06106C5.70478 9.33446 6.68887 10.5675 6.82946 10.7404C6.96393 10.9133 8.76708 13.5292 11.5299 14.6528C12.1839 14.9178 12.6973 15.0792 13.0947 15.2002C13.7548 15.3961 14.3538 15.3673 14.8245 15.3039C15.3501 15.229 16.4503 14.6758 16.6826 14.0708C16.9088 13.4658 16.9088 12.9472 16.8415 12.8378C16.7621 12.7398 16.5787 12.6764 16.3037 12.5439Z" fill="white"/>
</svg>
