<svg width="26" height="18" viewBox="0 0 26 18" fill="none" xmlns="http://www.w3.org/2000/svg">
<path fill-rule="evenodd" clip-rule="evenodd" d="M1.18199 2.14594C0.220703 3.39872 0.220703 5.21726 0.220703 8.85435C0.220703 12.4914 0.220703 14.31 1.18199 15.5628C1.42947 15.8853 1.71816 16.174 2.04069 16.4215C3.29346 17.3827 5.11201 17.3827 8.74909 17.3827H17.2775C20.9146 17.3827 22.7331 17.3827 23.9859 16.4215C24.3084 16.174 24.5971 15.8853 24.8446 15.5628C25.8059 14.31 25.8059 12.4914 25.8059 8.85435C25.8059 5.21726 25.8059 3.39872 24.8446 2.14594C24.5971 1.82342 24.3084 1.53473 23.9859 1.28725C22.7331 0.325958 20.9146 0.325958 17.2775 0.325958H8.7491C5.11201 0.325958 3.29346 0.325958 2.04069 1.28725C1.71816 1.53473 1.42947 1.82342 1.18199 2.14594ZM11.3079 11.7516L16.425 8.42796L11.3079 5.10434V11.7516Z" fill="white"/>
</svg>
